<svg class="railroad-diagram" width="844" height="208" viewBox="0 0 844 208" xmlns="http://www.w3.org/2000/svg" xmlns:xlink="http://www.w3.org/1999/xlink">
    <g transform="translate(.5 .5)">
        <g>
            <path d="M20 49v20m10 -20v20m-10 -10h20"></path>
        </g>
        <g>
            <path d="M40 59h0"></path>
            <path d="M716 59h0"></path>
            <path d="M40 59h20"></path>
            <g>
                <path d="M60 59h0"></path>
                <path d="M696 59h0"></path>
                <path d="M60 59a10 10 0 0 0 10 -10v-19a10 10 0 0 1 10 -10h100a10 10 0 0 1 10 10v19a10 10 0 0 0 10 10"></path>
                <path d="M60 59h20"></path>
                <g class="non-terminal ">
                    <path d="M80 59h0"></path>
                    <path d="M180 59h0"></path>
                    <rect x="80" y="48" width="100" height="22"></rect>
                    <text x="130" y="63">sleepUntil</text>
                </g>
                <path d="M180 59h20"></path>
                <g>
                    <path d="M200 59h0"></path>
                    <path d="M686 59h0"></path>
                    <path d="M200 59h20"></path>
                    <g>
                        <path d="M220 59h0"></path>
                        <path d="M666 59h0"></path>
                        <g>
                            <path d="M220 59h0"></path>
                            <path d="M494 59h0"></path>
                            <path d="M220 59h20"></path>
                            <g>
                                <path d="M240 59h8"></path>
                                <path d="M466 59h8"></path>
                                <g class="non-terminal ">
                                    <path d="M248 59h0"></path>
                                    <path d="M292 59h0"></path>
                                    <rect x="248" y="48" width="44" height="22"></rect>
                                    <text x="270" y="63">run</text>
                                </g>
                                <path d="M292 59h10"></path>
                                <g>
                                    <path d="M302 59h0"></path>
                                    <path d="M466 59h0"></path>
                                    <path d="M302 59a10 10 0 0 0 10 -10v0a10 10 0 0 1 10 -10"></path>
                                    <g class="non-terminal ">
                                        <path d="M322 39h0"></path>
                                        <path d="M446 39h0"></path>
                                        <rect x="322" y="28" width="124" height="22"></rect>
                                        <text x="384" y="43">andWakeOthers</text>
                                    </g>
                                    <path d="M446 39a10 10 0 0 1 10 10v0a10 10 0 0 0 10 10"></path>
                                    <path d="M302 59h20"></path>
                                    <g>
                                        <path d="M322 59h124"></path>
                                    </g>
                                    <path d="M446 59h20"></path>
                                </g>
                            </g>
                            <path d="M474 59h20"></path>
                            <path d="M220 59a10 10 0 0 1 10 10v10a10 10 0 0 0 10 10"></path>
                            <g>
                                <path d="M240 89h0"></path>
                                <path d="M474 89h0"></path>
                                <g class="non-terminal ">
                                    <path d="M240 89h0"></path>
                                    <path d="M284 89h0"></path>
                                    <rect x="240" y="78" width="44" height="22"></rect>
                                    <text x="262" y="93">get</text>
                                </g>
                                <path d="M284 89h10"></path>
                                <g>
                                    <path d="M294 89h0"></path>
                                    <path d="M474 89h0"></path>
                                    <path d="M294 89h20"></path>
                                    <g>
                                        <path d="M314 89h140"></path>
                                    </g>
                                    <path d="M454 89h20"></path>
                                    <path d="M294 89a10 10 0 0 1 10 10v0a10 10 0 0 0 10 10"></path>
                                    <g class="non-terminal ">
                                        <path d="M314 109h8"></path>
                                        <path d="M446 109h8"></path>
                                        <rect x="322" y="98" width="124" height="22"></rect>
                                        <text x="384" y="113">andWakeOthers</text>
                                    </g>
                                    <path d="M454 109a10 10 0 0 0 10 -10v0a10 10 0 0 1 10 -10"></path>
                                    <path d="M294 89a10 10 0 0 1 10 10v30a10 10 0 0 0 10 10"></path>
                                    <g class="non-terminal ">
                                        <path d="M314 139h0"></path>
                                        <path d="M454 139h0"></path>
                                        <rect x="314" y="128" width="140" height="22"></rect>
                                        <text x="384" y="143">andWakeOthersIf</text>
                                    </g>
                                    <path d="M454 139a10 10 0 0 0 10 -10v-30a10 10 0 0 1 10 -10"></path>
                                </g>
                            </g>
                            <path d="M474 89a10 10 0 0 0 10 -10v-10a10 10 0 0 1 10 -10"></path>
                        </g>
                        <g>
                            <path d="M494 59h0"></path>
                            <path d="M666 59h0"></path>
                            <path d="M494 59a10 10 0 0 0 10 -10v0a10 10 0 0 1 10 -10"></path>
                            <g class="non-terminal ">
                                <path d="M514 39h0"></path>
                                <path d="M646 39h0"></path>
                                <rect x="514" y="28" width="132" height="22"></rect>
                                <text x="580" y="43">thenSleepUntil</text>
                            </g>
                            <path d="M646 39a10 10 0 0 1 10 10v0a10 10 0 0 0 10 10"></path>
                            <path d="M494 59h20"></path>
                            <g>
                                <path d="M514 59h132"></path>
                            </g>
                            <path d="M646 59h20"></path>
                        </g>
                    </g>
                    <path d="M666 59h20"></path>
                </g>
                <path d="M686 59h10"></path>
                <path d="M180 59a10 10 0 0 1 10 10v79a10 10 0 0 0 10 10h476a10 10 0 0 0 10 -10v-79a10 10 0 0 1 10 -10"></path>
            </g>
            <path d="M696 59h20"></path>
            <path d="M40 59a10 10 0 0 1 10 10v98a10 10 0 0 0 10 10"></path>
            <g class="non-terminal ">
                <path d="M60 177h268"></path>
                <path d="M428 177h268"></path>
                <rect x="328" y="166" width="100" height="22"></rect>
                <text x="378" y="181">wakeOthers</text>
            </g>
            <path d="M696 177a10 10 0 0 0 10 -10v-98a10 10 0 0 1 10 -10"></path>
        </g>
        <path d="M716 59h10"></path>
        <g class="non-terminal ">
            <path d="M726 59h0"></path>
            <path d="M794 59h0"></path>
            <rect x="726" y="48" width="68" height="22"></rect>
            <text x="760" y="63">invoke</text>
        </g>
        <path d="M794 59h10"></path>
        <path d="M 804 59 h 20 m -10 -10 v 20 m 10 -20 v 20"></path>
    </g>
    <style>
        svg {
        background-color: hsl(30,20%,95%);
        }
        path {
        stroke-width: 3;
        stroke: black;
        fill: rgba(0,0,0,0);
        }
        text {
        font: bold 14px monospace;
        text-anchor: middle;
        white-space: pre;
        }
        text.diagram-text {
        font-size: 12px;
        }
        text.diagram-arrow {
        font-size: 16px;
        }
        text.label {
        text-anchor: start;
        }
        text.comment {
        font: italic 12px monospace;
        }
        g.non-terminal text {
        /&#42;font-style: italic;&#42;/
        }
        rect {
        stroke-width: 3;
        stroke: black;
        fill: hsl(120,100%,90%);
        }
        rect.group-box {
        stroke: gray;
        stroke-dasharray: 10 5;
        fill: none;
        }
        path.diagram-text {
        stroke-width: 3;
        stroke: black;
        fill: white;
        cursor: help;
        }
        g.diagram-text:hover path.diagram-text {
        fill: #eee;
        }</style>
</svg>
