<svg class="railroad-diagram" width="778" height="162" viewBox="0 0 778 162" xmlns="http://www.w3.org/2000/svg" xmlns:xlink="http://www.w3.org/1999/xlink">
    <g transform="translate(.5 .5)">
        <g>
            <path d="M20 41v20m10 -20v20m-10 -10h20"></path>
        </g>
        <g>
            <path d="M40 51h0"></path>
            <path d="M185 51h0"></path>
            <path d="M40 51h20"></path>
            <g>
                <path d="M60 51h105"></path>
            </g>
            <path d="M165 51h20"></path>
            <path d="M40 51a10 10 0 0 1 10 10v0a10 10 0 0 0 10 10"></path>
            <g class="terminal ">
                <path d="M60 71h0"></path>
                <path d="M165 71h0"></path>
                <rect x="60" y="60" width="105" height="22" rx="10" ry="10"></rect>
                <text x="112.5" y="75">sleepUntil</text>
            </g>
            <path d="M165 71a10 10 0 0 0 10 -10v0a10 10 0 0 1 10 -10"></path>
        </g>
        <g>
            <path d="M185 51h0"></path>
            <path d="M468 51h0"></path>
            <path d="M185 51h20"></path>
            <g>
                <path d="M205 51h8.5"></path>
                <path d="M439.5 51h8.5"></path>
                <g class="non-terminal ">
                    <path d="M213.5 51h0"></path>
                    <path d="M259 51h0"></path>
                    <rect x="213.5" y="40" width="45.5" height="22"></rect>
                    <text x="236.25" y="55">run</text>
                </g>
                <path d="M259 51h10"></path>
                <g>
                    <path d="M269 51h0"></path>
                    <path d="M439.5 51h0"></path>
                    <path d="M269 51a10 10 0 0 0 10 -10v0a10 10 0 0 1 10 -10"></path>
                    <g class="non-terminal ">
                        <path d="M289 31h0"></path>
                        <path d="M419.5 31h0"></path>
                        <rect x="289" y="20" width="130.5" height="22"></rect>
                        <text x="354.25" y="35">andWakeOthers</text>
                    </g>
                    <path d="M419.5 31a10 10 0 0 1 10 10v0a10 10 0 0 0 10 10"></path>
                    <path d="M269 51h20"></path>
                    <g>
                        <path d="M289 51h130.5"></path>
                    </g>
                    <path d="M419.5 51h20"></path>
                </g>
            </g>
            <path d="M448 51h20"></path>
            <path d="M185 51a10 10 0 0 1 10 10v10a10 10 0 0 0 10 10"></path>
            <g>
                <path d="M205 81h0"></path>
                <path d="M448 81h0"></path>
                <g class="non-terminal ">
                    <path d="M205 81h0"></path>
                    <path d="M250.5 81h0"></path>
                    <rect x="205" y="70" width="45.5" height="22"></rect>
                    <text x="227.75" y="85">get</text>
                </g>
                <path d="M250.5 81h10"></path>
                <g>
                    <path d="M260.5 81h0"></path>
                    <path d="M448 81h0"></path>
                    <path d="M260.5 81h20"></path>
                    <g>
                        <path d="M280.5 81h147.5"></path>
                    </g>
                    <path d="M428 81h20"></path>
                    <path d="M260.5 81a10 10 0 0 1 10 10v0a10 10 0 0 0 10 10"></path>
                    <g class="non-terminal ">
                        <path d="M280.5 101h8.5"></path>
                        <path d="M419.5 101h8.5"></path>
                        <rect x="289" y="90" width="130.5" height="22"></rect>
                        <text x="354.25" y="105">andWakeOthers</text>
                    </g>
                    <path d="M428 101a10 10 0 0 0 10 -10v0a10 10 0 0 1 10 -10"></path>
                    <path d="M260.5 81a10 10 0 0 1 10 10v30a10 10 0 0 0 10 10"></path>
                    <g class="non-terminal ">
                        <path d="M280.5 131h0"></path>
                        <path d="M428 131h0"></path>
                        <rect x="280.5" y="120" width="147.5" height="22"></rect>
                        <text x="354.25" y="135">andWakeOthersIf</text>
                    </g>
                    <path d="M428 131a10 10 0 0 0 10 -10v-30a10 10 0 0 1 10 -10"></path>
                </g>
            </g>
            <path d="M448 81a10 10 0 0 0 10 -10v-10a10 10 0 0 1 10 -10"></path>
        </g>
        <g>
            <path d="M468 51h0"></path>
            <path d="M647 51h0"></path>
            <path d="M468 51a10 10 0 0 0 10 -10v0a10 10 0 0 1 10 -10"></path>
            <g class="non-terminal ">
                <path d="M488 31h0"></path>
                <path d="M627 31h0"></path>
                <rect x="488" y="20" width="139" height="22"></rect>
                <text x="557.5" y="35">thenSleepUntil</text>
            </g>
            <path d="M627 31a10 10 0 0 1 10 10v0a10 10 0 0 0 10 10"></path>
            <path d="M468 51h20"></path>
            <g>
                <path d="M488 51h139"></path>
            </g>
            <path d="M627 51h20"></path>
        </g>
        <path d="M647 51h10"></path>
        <g class="non-terminal ">
            <path d="M657 51h0"></path>
            <path d="M728 51h0"></path>
            <rect x="657" y="40" width="71" height="22"></rect>
            <text x="692.5" y="55">invoke</text>
        </g>
        <path d="M728 51h10"></path>
        <path d="M 738 51 h 20 m -10 -10 v 20 m 10 -20 v 20"></path>
    </g>
    <style>
        svg {
        background-color: hsl(30,20%,95%);
        }
        path {
        stroke-width: 3;
        stroke: black;
        fill: rgba(0,0,0,0);
        }
        text {
        font: bold 14px monospace;
        text-anchor: middle;
        white-space: pre;
        }
        text.diagram-text {
        font-size: 12px;
        }
        text.diagram-arrow {
        font-size: 16px;
        }
        text.label {
        text-anchor: start;
        }
        text.comment {
        font: italic 12px monospace;
        }
        g.non-terminal text {
        /&#42;font-style: italic;&#42;/
        }
        rect {
        stroke-width: 3;
        stroke: black;
        fill: hsl(120,100%,90%);
        }
        rect.group-box {
        stroke: gray;
        stroke-dasharray: 10 5;
        fill: none;
        }
        path.diagram-text {
        stroke-width: 3;
        stroke: black;
        fill: white;
        cursor: help;
        }
        g.diagram-text:hover path.diagram-text {
        fill: #eee;
        }</style>
</svg>
